<svg xmlns="http://www.w3.org/2000/svg" viewBox="0 0 129.08 75.14"><defs><style>.cls-1{fill:#f7941d;}.cls-2{fill:#f15a29;}.cls-3{fill:#f4eec2;}</style></defs><title>Asset 1</title><g id="Layer_2" data-name="Layer 2"><g id="Final_Art" data-name="Final Art"><path class="cls-1" d="M117,35c-1.09-9-2.7-17.1,2.76-22.06a15.06,15.06,0,0,1,9.3-3.49,20.28,20.28,0,0,0-9.59-8.14c-8.86-3.35-17.91.36-24.33,6.73-7.07,7-8.4,16.17-13.76,24.09C71.72,46.41,52.21,55,34,53.59A54,54,0,0,1,6.4,43.13S1.84,60.18,0,66.39C8,62.88,19.94,59,34,60.28c12.25,1.08,22,6.79,33,11.69a39,39,0,0,0,19.62,3C88.85,58.2,100.22,42.88,117,35Z"/><path class="cls-2" d="M114.84,57.08c3.6-7.21,3-15,2.18-22.13-16.8,7.93-28.17,23.25-30.4,40C98.29,73.77,109.54,67.71,114.84,57.08Z"/><path class="cls-3" d="M110.79,9.06A4,4,0,0,1,107,6.44a4,4,0,1,0,7.53,0A4,4,0,0,1,110.79,9.06Z"/><path class="cls-2" d="M96.61,32.88,45.94,15.54c1.2,22.16,17.42,36.15,30.67,34.67C89.05,48.82,96,34.1,96.61,32.88Z"/></g></g></svg>