<svg xmlns="http://www.w3.org/2000/svg" viewBox="0 0 211 120.72"><defs><style>.cls-1{fill:#ef4136;}.cls-2{fill:#9a1420;}</style></defs><title>Asset 2</title><g id="Layer_2" data-name="Layer 2"><g id="Final_Art" data-name="Final Art"><path class="cls-1" d="M211,66.33,143.33,0l-1.66,66L0,68.33l16.67,38.34C38.84,77.28,53.28,73.45,62.2,75c16.45,2.87,32.35,26.92,46.22,36.11,8,5.31,17.16,9.36,26.76,9.6,15,.38,29.22-8.84,37.22-21.22,9-13.92,7.6-28.48,6.95-33.16Z"/><polygon class="cls-2" points="142.67 95.67 56 53.33 142 51.67 142.67 95.67"/><path class="cls-2" d="M142.58,35.66c11.32,9.67,36.35,30.84,36.35,30.84l.39-30.84Z"/><circle class="cls-1" cx="167.17" cy="44.5" r="4"/></g></g></svg>